<svg width="25" height="25" viewBox="0 0 25 25" fill="none" xmlns="http://www.w3.org/2000/svg">
<g clip-path="url(#clip0_12_178)">
<path d="M12.5 0.390624C19.1895 0.390625 24.6094 5.81055 24.6094 12.5C24.6094 19.1895 19.1895 24.6094 12.5 24.6094C5.81055 24.6094 0.390625 19.1895 0.390626 12.5C0.390627 5.81054 5.81055 0.390623 12.5 0.390624ZM11.0889 7.40234L14.7754 10.9375L5.85938 10.9375C5.20996 10.9375 4.6875 11.46 4.6875 12.1094L4.6875 12.8906C4.6875 13.54 5.20996 14.0625 5.85938 14.0625L14.7754 14.0625L11.0889 17.5977C10.6152 18.0518 10.6055 18.8086 11.0693 19.2725L11.6064 19.8047C12.0654 20.2637 12.8076 20.2637 13.2617 19.8047L19.7412 13.3301C20.2002 12.8711 20.2002 12.1289 19.7412 11.6748L13.2617 5.19531C12.8027 4.73633 12.0605 4.73633 11.6064 5.19531L11.0693 5.72754C10.6055 6.19141 10.6152 6.94824 11.0889 7.40234Z" fill="white"/>
</g>
<defs>
<clipPath id="clip0_12_178">
<rect width="25" height="25" fill="white" transform="translate(25 25) rotate(-180)"/>
</clipPath>
</defs>
</svg>
