<svg width="25" height="25" viewBox="0 0 25 25" fill="none" xmlns="http://www.w3.org/2000/svg">
<path d="M12.5 24.6094C5.81055 24.6094 0.390625 19.1895 0.390625 12.5C0.390625 5.81055 5.81055 0.390625 12.5 0.390625C19.1895 0.390625 24.6094 5.81055 24.6094 12.5C24.6094 19.1895 19.1895 24.6094 12.5 24.6094ZM13.9111 17.5977L10.2246 14.0625H19.1406C19.79 14.0625 20.3125 13.54 20.3125 12.8906V12.1094C20.3125 11.46 19.79 10.9375 19.1406 10.9375H10.2246L13.9111 7.40234C14.3848 6.94824 14.3945 6.19141 13.9307 5.72754L13.3936 5.19531C12.9346 4.73633 12.1924 4.73633 11.7383 5.19531L5.25879 11.6699C4.7998 12.1289 4.7998 12.8711 5.25879 13.3252L11.7383 19.8047C12.1973 20.2637 12.9395 20.2637 13.3936 19.8047L13.9307 19.2725C14.3945 18.8086 14.3848 18.0518 13.9111 17.5977Z" fill="white"/>
</svg>
